<?xml version="1.0" standalone="no"?>
<!DOCTYPE svg PUBLIC "-//W3C//DTD SVG 20010904//EN"
 "http://www.w3.org/TR/2001/REC-SVG-20010904/DTD/svg10.dtd">
<svg version="1.0" xmlns="http://www.w3.org/2000/svg"
 width="500.000000pt" height="500.000000pt" viewBox="0 0 500.000000 500.000000"
 preserveAspectRatio="xMidYMid meet">

<g transform="translate(0.000000,500.000000) scale(0.100000,-0.100000)"
fill="#000000" stroke="none">
<path d="M2355 4359 c-272 -39 -529 -220 -649 -456 l-26 -53 -215 0 c-137 0
-215 -4 -215 -10 0 -6 92 -10 255 -10 152 0 255 4 255 9 0 6 -14 11 -30 13
l-31 3 50 80 c129 209 346 358 585 400 111 19 180 19 291 0 235 -41 443 -178
573 -378 28 -43 54 -87 57 -97 4 -11 13 -20 21 -20 22 0 -36 102 -112 199
-190 241 -502 364 -809 320z"/>
<path d="M2430 4273 c-268 -25 -492 -159 -622 -375 -21 -34 -38 -71 -38 -82 0
-14 12 -1 33 37 185 330 570 480 926 361 171 -57 324 -182 416 -339 l38 -65
248 0 c154 0 250 4 254 10 4 7 -79 10 -242 10 l-248 0 -43 70 c-134 217 -365
356 -622 372 -36 2 -81 3 -100 1z"/>
<path d="M2125 3917 c-139 -47 -219 -152 -220 -292 0 -129 5 -137 303 -437
147 -148 271 -268 277 -268 21 0 522 514 546 560 20 38 24 59 24 140 0 87 -3
100 -30 149 -59 106 -177 169 -297 158 -72 -6 -133 -35 -198 -94 l-50 -45 -51
47 c-27 25 -71 56 -96 67 -58 25 -155 32 -208 15z m216 -50 c24 -14 66 -46 92
-72 l48 -47 53 50 c81 77 126 97 221 97 70 0 87 -4 133 -30 98 -53 145 -132
146 -240 1 -119 -12 -136 -297 -423 l-252 -252 -253 252 c-141 141 -263 271
-274 293 -14 25 -23 66 -26 111 -4 62 -1 79 20 125 38 80 97 134 178 160 14 5
57 7 96 5 55 -2 82 -9 115 -29z"/>
<path d="M2836 3812 c-4 -7 7 -29 27 -53 40 -46 59 -108 50 -163 -5 -31 -3
-38 8 -34 19 6 24 81 8 135 -14 50 -81 133 -93 115z"/>
<path d="M2405 3638 c-2 -7 -6 -38 -7 -68 l-3 -55 -60 -3 c-32 -2 -65 -8 -72
-14 -8 -6 -13 -34 -13 -74 0 -77 17 -94 97 -94 l53 0 0 -64 c0 -49 4 -65 16
-70 28 -11 130 -6 142 6 7 7 12 38 12 70 l0 58 44 0 c25 0 56 4 70 10 24 9 26
14 26 78 0 40 -5 73 -12 80 -7 7 -38 12 -70 12 l-58 0 0 58 c0 32 -5 63 -12
70 -17 17 -147 16 -153 0z m135 -83 l5 -70 70 -5 70 -5 0 -55 0 -55 -70 -5
-70 -5 -3 -67 -3 -68 -59 0 -60 0 0 70 0 69 -67 3 -68 3 -3 57 -3 57 68 3 68
3 3 60 c4 86 4 87 64 83 l53 -3 5 -70z"/>
<path d="M2876 3506 c-19 -30 -20 -36 -3 -36 18 0 41 40 29 52 -5 5 -15 -1
-26 -16z"/>
<path d="M1363 3635 c-30 -13 -53 -41 -53 -64 0 -19 22 -12 46 14 35 38 79 33
103 -12 16 -31 4 -56 -78 -153 -39 -47 -71 -88 -71 -92 0 -5 43 -8 95 -8 88 0
95 1 95 20 0 18 -7 20 -61 20 l-61 0 44 53 c66 78 78 98 78 135 0 46 -16 71
-55 88 -41 17 -42 17 -82 -1z"/>
<path d="M1622 3530 c-39 -61 -72 -120 -72 -130 0 -18 7 -20 69 -20 68 0 70 0
73 -27 2 -17 10 -29 21 -31 13 -3 17 3 17 27 0 24 4 31 20 31 12 0 20 7 20 16
0 9 -9 18 -20 21 -18 5 -20 14 -20 114 0 146 -11 146 -108 -1z m68 -35 l0 -75
-50 0 -49 0 47 75 c26 41 48 75 50 75 1 0 2 -34 2 -75z"/>
<path d="M3360 3625 c0 -12 15 -15 73 -15 41 0 76 -3 80 -6 3 -3 -28 -61 -69
-128 -89 -149 -92 -156 -67 -156 13 0 39 35 91 124 39 68 81 140 93 160 l21
36 -111 0 c-92 0 -111 -3 -111 -15z"/>
<path d="M1770 3142 c0 -30 81 -145 159 -223 255 -255 651 -301 965 -112 99
60 241 206 277 287 10 20 19 26 46 26 18 0 33 -3 33 -6 0 -18 -66 -118 -117
-179 -108 -128 -271 -231 -439 -276 -112 -31 -316 -31 -428 -1 -223 61 -428
221 -539 421 l-28 51 30 0 c17 0 31 5 31 10 0 6 -92 10 -255 10 -163 0 -255
-4 -255 -10 0 -6 78 -10 214 -10 l215 0 36 -67 c114 -217 353 -390 604 -437
368 -70 745 107 931 437 l32 57 198 0 c122 0 201 4 205 10 4 7 -82 10 -252 10
l-258 0 -27 -48 c-67 -119 -191 -233 -323 -298 -129 -63 -196 -79 -345 -79
-148 0 -237 22 -364 88 -103 52 -254 199 -304 295 -35 65 -42 73 -42 44z"/>
<path d="M579 2371 c-67 -22 -99 -61 -99 -121 0 -69 35 -107 172 -184 56 -31
71 -65 42 -97 -17 -18 -27 -20 -84 -16 -36 3 -77 9 -91 12 -23 6 -28 3 -37
-25 -11 -30 -10 -32 23 -46 86 -36 202 -27 253 19 30 28 44 84 32 127 -13 46
-43 75 -120 117 -86 48 -100 61 -100 94 0 46 65 64 139 38 36 -13 46 -7 56 32
6 23 3 28 -26 38 -45 16 -129 22 -160 12z"/>
<path d="M3260 2130 l0 -250 40 0 39 0 3 135 3 135 69 -90 c38 -49 72 -90 75
-90 4 0 38 41 77 92 l69 91 3 -136 3 -137 39 0 40 0 0 250 c0 138 -4 250 -8
250 -4 0 -55 -63 -112 -139 -58 -77 -107 -140 -110 -140 -3 -1 -50 60 -105
134 -55 74 -106 136 -112 139 -10 4 -13 -48 -13 -244z"/>
<path d="M1490 2330 c-25 -25 -25 -32 -2 -60 14 -18 25 -21 45 -16 38 9 48 53
17 78 -28 23 -35 23 -60 -2z"/>
<path d="M4440 2330 c-25 -25 -25 -32 -2 -60 25 -31 69 -21 78 17 5 20 2 31
-16 45 -28 23 -35 23 -60 -2z"/>
<path d="M1055 2206 c-45 -19 -92 -78 -100 -124 -22 -132 93 -232 227 -198 58
16 85 38 109 91 25 54 24 103 -4 155 -41 77 -149 112 -232 76z m146 -85 c87
-87 -30 -228 -128 -154 -78 58 -39 183 57 183 33 0 48 -6 71 -29z"/>
<path d="M1840 2209 c-33 -14 -68 -47 -87 -82 -19 -37 -19 -117 1 -154 46 -89
157 -119 230 -62 l26 20 0 -31 c0 -37 -23 -85 -45 -94 -32 -12 -79 -6 -123 16
l-45 21 -19 -24 c-20 -23 -20 -23 7 -45 57 -45 164 -58 225 -26 22 12 44 35
58 62 20 41 22 57 22 222 l0 178 -29 0 c-21 0 -32 -6 -36 -20 -6 -19 -7 -19
-35 2 -33 24 -112 33 -150 17z m141 -88 c49 -49 38 -125 -23 -157 -66 -34
-143 12 -143 88 0 33 6 45 33 69 44 40 93 40 133 0z"/>
<path d="M2385 2200 c-47 -24 -45 -24 -45 -5 0 10 -10 15 -30 15 l-30 0 0
-166 0 -165 38 3 37 3 5 118 c5 130 14 147 70 147 56 0 65 -17 70 -147 l5
-118 38 -3 37 -3 0 121 c0 82 -5 132 -14 155 -26 63 -107 83 -181 45z"/>
<path d="M2844 2206 c-64 -29 -102 -109 -90 -190 17 -114 144 -173 253 -117
53 26 58 36 39 66 l-16 24 -49 -25 c-44 -23 -53 -25 -85 -14 -38 12 -66 43
-66 72 0 16 12 18 126 18 l127 0 -6 42 c-6 45 -28 81 -70 112 -33 25 -121 32
-163 12z m129 -73 c35 -33 21 -43 -58 -43 -79 0 -94 11 -57 42 35 31 80 32
115 1z"/>
<path d="M4005 2206 c-45 -19 -92 -78 -100 -124 -22 -132 93 -232 227 -198 58
16 85 38 109 91 25 54 24 103 -4 155 -41 77 -149 112 -232 76z m146 -85 c87
-87 -30 -228 -128 -154 -78 58 -39 183 57 183 33 0 48 -6 71 -29z"/>
<path d="M1482 2048 l3 -163 38 -3 37 -3 0 165 0 166 -40 0 -40 0 2 -162z"/>
<path d="M4432 2048 l3 -163 38 -3 37 -3 0 165 0 166 -40 0 -40 0 2 -162z"/>
<path d="M2170 1645 c0 -13 43 -15 330 -15 287 0 330 2 330 15 0 13 -43 15
-330 15 -287 0 -330 -2 -330 -15z"/>
<path d="M492 1410 c-40 -17 -46 -88 -9 -112 21 -13 64 -9 78 8 11 14 9 15
-22 9 -43 -8 -64 12 -55 51 6 21 12 25 39 24 49 -3 54 -1 33 15 -22 17 -32 18
-64 5z"/>
<path d="M1580 1407 c-18 -9 -26 -22 -28 -46 -8 -83 104 -100 123 -19 5 21 1
33 -19 52 -28 29 -40 31 -76 13z m68 -48 c6 -49 -58 -65 -73 -18 -9 27 13 51
44 47 20 -2 27 -9 29 -29z"/>
<path d="M1743 1414 c-23 -10 -15 -54 12 -66 14 -6 25 -18 25 -26 0 -10 -8
-13 -25 -10 -17 4 -25 1 -25 -9 0 -21 60 -13 74 10 9 15 5 23 -23 46 -34 28
-31 48 4 34 13 -4 16 -2 13 8 -5 15 -34 21 -55 13z"/>
<path d="M3763 1414 c-23 -10 -15 -54 12 -66 14 -6 25 -18 25 -26 0 -10 -8
-13 -25 -10 -17 4 -25 1 -25 -9 0 -21 60 -13 74 10 9 15 5 23 -23 46 -34 28
-31 48 4 34 13 -4 16 -2 13 8 -5 15 -34 21 -55 13z"/>
<path d="M620 1350 l0 -60 40 0 c22 0 40 5 40 10 0 6 -11 10 -24 10 -14 0 -28
5 -31 10 -4 6 5 10 19 10 32 0 34 17 4 22 -33 4 -37 38 -4 38 14 0 28 5 31 10
4 6 -10 10 -34 10 l-41 0 0 -60z"/>
<path d="M750 1350 c0 -33 4 -60 10 -60 6 0 10 17 10 37 l0 37 40 -39 40 -39
0 62 c0 35 -4 62 -10 62 -5 0 -10 -14 -10 -32 l0 -32 -33 32 c-18 18 -36 32
-40 32 -4 0 -7 -27 -7 -60z"/>
<path d="M900 1400 c0 -5 7 -10 15 -10 11 0 15 -12 15 -50 0 -38 4 -50 15 -50
11 0 15 12 15 46 0 33 5 51 18 60 15 12 11 13 -30 14 -27 0 -48 -4 -48 -10z"/>
<path d="M1032 1353 c2 -34 8 -58 16 -61 7 -2 12 5 12 17 0 27 27 27 35 1 3
-11 13 -20 21 -20 11 0 12 4 4 19 -7 14 -7 27 1 45 17 36 -3 56 -53 56 l-39 0
3 -57z m68 23 c0 -15 -24 -28 -34 -19 -13 14 -5 33 14 33 11 0 20 -6 20 -14z"/>
<path d="M1180 1350 l0 -60 40 0 c22 0 40 5 40 10 0 6 -11 10 -25 10 -14 0
-25 5 -25 10 0 6 9 10 20 10 11 0 20 5 20 10 0 6 -9 10 -20 10 -13 0 -20 7
-20 20 0 15 7 20 25 20 14 0 25 5 25 10 0 6 -18 10 -40 10 l-40 0 0 -60z"/>
<path d="M1390 1350 c0 -47 3 -60 15 -60 8 0 15 9 15 20 0 15 7 20 25 20 18 0
25 -5 25 -20 0 -11 5 -20 10 -20 6 0 10 27 10 60 0 60 -16 84 -22 33 -2 -20
-9 -29 -25 -31 -20 -3 -23 1 -23 27 0 21 -5 31 -15 31 -12 0 -15 -13 -15 -60z"/>
<path d="M1860 1351 c0 -48 3 -61 15 -61 8 0 15 8 15 18 0 11 12 22 31 29 25
10 30 16 27 40 -3 25 -7 28 -45 31 l-43 3 0 -60z m70 25 c0 -8 -7 -17 -16 -20
-23 -9 -24 -8 -24 14 0 13 7 20 20 20 11 0 20 -6 20 -14z"/>
<path d="M2002 1353 c4 -81 28 -85 28 -4 0 48 -3 61 -15 61 -13 0 -15 -11 -13
-57z"/>
<path d="M2080 1400 c0 -5 7 -10 15 -10 11 0 15 -12 15 -50 0 -27 5 -50 10
-50 6 0 10 23 10 50 0 38 4 50 15 50 8 0 15 5 15 10 0 6 -18 10 -40 10 -22 0
-40 -4 -40 -10z"/>
<path d="M2227 1355 c-32 -65 -32 -65 -12 -65 8 0 15 5 15 10 0 6 11 10 24 10
14 0 28 -4 31 -10 3 -5 12 -10 20 -10 10 0 7 15 -13 60 -15 32 -29 59 -32 60
-3 0 -18 -25 -33 -55z m43 -10 c0 -8 -7 -15 -15 -15 -9 0 -12 6 -9 15 4 8 10
15 15 15 5 0 9 -7 9 -15z"/>
<path d="M2360 1350 l0 -60 35 0 c19 0 35 5 35 10 0 6 -9 10 -20 10 -17 0 -20
7 -20 50 0 38 -4 50 -15 50 -12 0 -15 -13 -15 -60z"/>
<path d="M2480 1350 c0 -33 4 -60 10 -60 6 0 10 27 10 60 0 33 -4 60 -10 60
-6 0 -10 -27 -10 -60z"/>
<path d="M2560 1350 l0 -60 40 0 c22 0 40 5 40 10 0 6 -11 10 -24 10 -14 0
-28 5 -31 10 -4 6 5 10 19 10 32 0 34 17 4 22 -33 4 -37 38 -4 38 14 0 28 5
31 10 4 6 -10 10 -34 10 l-41 0 0 -60z"/>
<path d="M2690 1351 c0 -34 4 -61 10 -61 6 0 10 9 10 20 0 11 6 20 14 20 8 0
18 -9 21 -20 3 -11 13 -20 21 -20 16 0 18 9 4 30 -5 9 -5 19 1 27 6 6 9 22 7
35 -2 19 -10 23 -45 26 l-43 3 0 -60z m60 25 c0 -15 -24 -28 -34 -19 -13 14
-5 33 14 33 11 0 20 -6 20 -14z"/>
<path d="M2920 1362 c0 -55 12 -72 52 -72 33 0 48 24 48 79 0 29 -4 41 -14 41
-11 0 -16 -14 -18 -47 -3 -40 -6 -48 -23 -48 -17 0 -20 8 -23 48 -4 62 -22 61
-22 -1z"/>
<path d="M3072 1353 c3 -66 28 -89 28 -27 l0 38 40 -39 40 -39 0 62 c0 48 -3
62 -15 62 -10 0 -15 -10 -15 -32 l0 -32 -33 32 c-18 18 -36 32 -40 32 -5 0 -7
-26 -5 -57z"/>
<path d="M3232 1353 c4 -81 28 -85 28 -4 0 48 -3 61 -15 61 -13 0 -15 -11 -13
-57z"/>
<path d="M3324 1378 c7 -18 19 -46 27 -61 l13 -29 27 54 c32 61 34 68 16 68
-7 0 -19 -17 -27 -37 l-14 -38 -14 38 c-8 20 -21 37 -28 37 -12 0 -12 -5 0
-32z"/>
<path d="M3470 1350 l0 -60 40 0 c22 0 40 5 40 10 0 6 -11 10 -25 10 -14 0
-25 5 -25 10 0 6 9 10 20 10 11 0 20 5 20 10 0 6 -9 10 -20 10 -13 0 -20 7
-20 20 0 15 7 20 25 20 14 0 25 5 25 10 0 6 -18 10 -40 10 l-40 0 0 -60z"/>
<path d="M3600 1351 c0 -34 4 -61 10 -61 6 0 10 9 10 20 0 27 24 25 43 -2 18
-27 33 -18 18 10 -7 13 -7 22 0 29 6 6 9 21 7 34 -2 20 -10 24 -45 27 l-43 3
0 -60z m65 30 c7 -12 -29 -33 -39 -24 -3 3 -6 12 -6 20 0 15 36 18 45 4z"/>
<path d="M3880 1350 c0 -33 4 -60 10 -60 6 0 10 27 10 60 0 33 -4 60 -10 60
-6 0 -10 -27 -10 -60z"/>
<path d="M3950 1400 c0 -5 7 -10 15 -10 11 0 15 -12 15 -50 0 -38 4 -50 15
-50 11 0 15 12 15 46 0 33 5 51 18 60 15 12 11 13 -30 14 -27 0 -48 -4 -48
-10z"/>
<path d="M4103 1355 c-26 -52 -26 -82 -1 -57 15 15 58 16 58 2 0 -5 7 -10 15
-10 8 0 15 2 15 4 0 8 -52 116 -56 116 -2 0 -16 -25 -31 -55z m36 -24 c-15 -5
-22 6 -14 19 6 9 10 9 16 -1 5 -8 4 -15 -2 -18z"/>
<path d="M4240 1350 c0 -33 4 -60 10 -60 6 0 10 27 10 60 0 33 -4 60 -10 60
-6 0 -10 -27 -10 -60z"/>
<path d="M4320 1351 c0 -34 4 -61 10 -61 6 0 10 9 10 20 0 27 24 25 43 -2 18
-27 33 -18 18 10 -7 13 -7 22 0 29 6 6 9 21 7 34 -2 20 -10 24 -45 27 l-43 3
0 -60z m65 30 c7 -12 -29 -33 -39 -24 -3 3 -6 12 -6 20 0 15 36 18 45 4z"/>
<path d="M4470 1350 l0 -60 40 0 c22 0 40 5 40 10 0 6 -11 10 -24 10 -14 0
-28 5 -31 10 -4 6 5 10 19 10 32 0 34 17 4 22 -33 4 -37 38 -4 38 14 0 28 5
31 10 4 6 -10 10 -34 10 l-41 0 0 -60z"/>
<path d="M1477 1273 c567 -2 1499 -2 2070 0 571 1 107 2 -1032 2 -1139 0
-1606 -1 -1038 -2z"/>
</g>
</svg>
